#!OML:ASF F:\VICON\USERDATA\INSTALL\rory3\rory3.ASF
:FULLY-SPECIFIED
:DEGREES
289
root -5.79942 17.8357 4.69627 3.1259 -48.556 -5.81037
lowerback 11.8741 3.0447 3.26705
upperback 1.38575 4.55412 2.39858
thorax -5.13511 2.17865 -0.0513932
lowerneck -13.3128 -4.05122 -10.8777
upperneck 40.4831 -6.38684 6.45661
head 17.8631 -3.68707 3.67402
rclavicle -1.19271e-013 1.47101e-014
rhumerus -30.2063 -8.63948 -75.4926
rradius 41.647
rwrist 1.13213
rhand -15.2922 10.3244
rfingers 7.12502
rthumb 10.8829 -19.3736
lclavicle -1.19271e-013 1.47101e-014
lhumerus -36.671 7.31469 84.975
lradius 31.2141
lwrist -6.34659
lhand -17.3232 26.3744
lfingers 7.12502
lthumb 8.92351 56.1657
rfemur 2.96767 -3.35148 26.1409
rtibia 32.5332
rfoot -14.1024 -2.15471
rtoes -4.54119
lfemur -17.9223 2.45626 -14.9785
ltibia 16.0269
lfoot 5.81582 1.19211
ltoes -6.4263
290
root -5.86328 17.8499 4.79619 2.46215 -48.5041 -4.94152
lowerback 11.8248 3.00205 2.6613
upperback 1.39584 4.40878 2.19369
thorax -5.12901 2.1195 0.0972357
lowerneck -13.1969 -4.01478 -10.871
upperneck 40.6618 -6.44194 6.60976
head 17.9521 -3.70082 3.74283
rclavicle 4.36332e-014 -2.10712e-014
rhumerus -30.3316 -8.92784 -75.5915
rradius 41.628
rwrist 1.06894
rhand -15.3953 10.2894
rfingers 7.12502
rthumb 10.7835 -19.4138
lclavicle 4.36332e-014 -2.10712e-014
lhumerus -36.5655 7.46841 84.7638
lradius 30.8802
lwrist -6.35902
lhand -17.1977 26.3455
lfingers 7.12502
lthumb 9.04456 56.1316
rfemur 2.2645 -3.73748 25.233
rtibia 34.5234
rfoot -13.3723 -1.65706
rtoes -3.28445
lfemur -17.3839 2.57172 -15.7825
ltibia 15.7962
lfoot 5.7128 0.619531
ltoes -4.93759
291
root -5.92305 17.8609 4.89301 1.79703 -48.2334 -4.13543
lowerback 11.8853 2.84075 2.08235
upperback 1.40099 4.1175 2.06984
thorax -5.19228 1.98696 0.333185
lowerneck -13.1326 -3.93524 -10.8516
upperneck 40.8487 -6.3511 6.58488
head 18.0294 -3.6755 3.75235
rclavicle -8.28932e-014 -1.07344e-014
rhumerus -30.3433 -9.25391 -75.5886
rradius 41.3918
rwrist 1.32004
rhand -15.3363 10.5705
rfingers 7.12502
rthumb 10.8404 -19.1297
lclavicle -8.28932e-014 -1.07344e-014
lhumerus -36.5145 7.93472 84.5371
lradius 30.5476
lwrist -6.46759
lhand -15.6496 26.7946
lfingers 7.12502
lthumb 10.5381 56.5104
rfemur 1.47485 -4.34385 24.3974
rtibia 36.6133
rfoot -12.3468 -1.38904
rtoes -3.61963
lfemur -16.8011 2.50158 -16.521
ltibia 15.5095
lfoot 5.50498 0.0962317
ltoes -2.74128
292
root -5.98017 17.8752 4.98526 1.34243 -48.0062 -3.61377
lowerback 12 2.67689 1.66318
upperback 1.40977 3.84585 1.99776
thorax -5.27053 1.86078 0.529962
lowerneck -13.1357 -3.87197 -10.8429
upperneck 41.0645 -6.25624 6.513
head 18.1409 -3.656 3.74248
rclavicle -2.03257e-014 -3.18055e-015
rhumerus -30.302 -9.82003 -75.5511
rradius 41.0339
rwrist 1.66453
rhand -15.2414 10.7687
rfingers 7.12502
rthumb 10.9319 -18.9267
lclavicle -2.03257e-014 -3.18055e-015
lhumerus -36.4611 8.54645 84.1336
lradius 30.3376
lwrist -7.25704
lhand -15.45 26.5846
lfingers 7.12502
lthumb 10.7307 56.2906
rfemur 0.58189 -4.96119 23.7627
rtibia 38.7639
rfoot -10.9817 -1.06065
rtoes -4.60196
lfemur -16.2156 2.64081 -17.0744
ltibia 15.1803
lfoot 5.48218 -0.334354
ltoes -2.02163
293
root -6.03813 17.8973 5.07745 0.922531 -47.9058 -3.14618
lowerback 12.1281 2.59451 1.33207
upperback 1.40608 3.69168 1.89616
thorax -5.3593 1.79037 0.62795
lowerneck -12.9373 -3.77473 -10.777
upperneck 41.1454 -6.14178 6.45643
head 18.1115 -3.61633 3.72965
rclavicle 6.03808e-014 -8.74653e-015
rhumerus -30.4348 -10.4389 -75.4947
rradius 40.7708
rwrist 1.92727
rhand -15.2644 10.8032
rfingers 7.12502
rthumb 10.9097 -18.8933
lclavicle 6.03808e-014 -8.74653e-015
lhumerus -36.3501 8.4041 84.1148
lradius 30.2189
lwrist -6.24344
lhand -15.903 27.3549
lfingers 7.12502
lthumb 10.2938 57.083
rfemur -0.34273 -5.49281 23.1094
rtibia 40.9418
rfoot -9.29497 -0.44623
rtoes -3.22287
lfemur -15.5942 2.90865 -17.5879
ltibia 14.8327
lfoot 5.51049 -0.618989
ltoes -2.71221
294
root -6.09322 17.9176 5.17368 0.63477 -47.8186 -2.89023
lowerback 12.214 2.47805 1.19568
upperback 1.45108 3.51537 1.82375
thorax -5.36212 1.70565 0.655023
lowerneck -12.8416 -3.67625 -10.8813
upperneck 41.2858 -6.0452 6.58867
head 18.1673 -3.58741 3.83696
rclavicle -7.1314e-014 6.36111e-015
rhumerus -30.5644 -10.7779 -75.5588
rradius 40.6711
rwrist 1.93884
rhand -15.1956 10.6668
rfingers 7.12502
rthumb 10.9761 -19.0263
lclavicle -7.1314e-014 6.36111e-015
lhumerus -36.1833 8.71914 83.8062
lradius 29.9927
lwrist -6.87952
lhand -15.0506 27.6094
lfingers 7.12502
lthumb 11.1159 57.295
rfemur -1.25689 -5.88701 22.5822
rtibia 43.1176
rfoot -7.33599 0.229123
rtoes 0.869173
lfemur -14.9382 3.07117 -17.9282
ltibia 14.5064
lfoot 5.29623 -0.898247
ltoes -3.20616
